<svg xmlns="http://www.w3.org/2000/svg" viewBox="0 0 50 50"><!--!Font Awesome Free 6.5.2 by @fontawesome - https://fontawesome.com License - https://fontawesome.com/license/free Copyright 2024 Fonticons, Inc.--><path d="m26.006 4.717-3.3 2.47a2.077 2.077 0 0 0-.831 1.67v.89a1.2 1.2 0 0 0 1.201 1.2c.235 0 .469-.068.664-.205l4.082-2.724a1.24 1.24 0 0 1 .664-.206h.098a1.11 1.11 0 0 1 1.104 1.104c0 .293-.118.576-.323.781l-1.943 1.944a5.179 5.179 0 0 1-2.022 1.25l-2.587.859a1.366 1.366 0 0 0-.938 1.309c0 .36-.146.712-.4.976l-1.748 1.748a3.303 3.303 0 0 0-.967 2.344v.42c0 1.601 1.328 2.9 2.92 2.9 1.074 0 2.07-.605 2.549-1.562l.39-.791a1.405 1.405 0 0 1 1.25-.772c.44 0 .85.205 1.113.557l1.592 2.119c.205.283.537.44.889.44.82 0 1.357-.87.986-1.602l-.107-.225a1.26 1.26 0 0 1 .732-1.757l2.07-.694a1.806 1.806 0 0 0 1.24-1.719c0-1.005.811-1.816 1.817-1.816h2.861c.86 0 1.563.703 1.563 1.563 0 .859-.703 1.562-1.563 1.562h-2.021c-.703 0-1.387.283-1.885.781l-.459.46a1.109 1.109 0 0 0-.322.78c0 .606.498 1.104 1.104 1.104h1.103c.586 0 1.152.234 1.563.645l.634.634a.947.947 0 0 1 0 1.328l-.732.733c-.352.37-.547.85-.547 1.348 0 .498.195.976.557 1.337l1.787 1.788a5.337 5.337 0 0 0 3.77 1.562h.722a20.36 20.36 0 0 0 .977-6.25c0-10.879-8.555-19.766-19.307-20.283Zm16.797 30.068a2.205 2.205 0 0 0-1.27-.4 2.218 2.218 0 0 1-1.562-.645l-1.3-1.318a3.975 3.975 0 0 0-2.821-1.172 4.023 4.023 0 0 1-2.598-.957l-2.588-2.227a6.28 6.28 0 0 0-4.072-1.503H24.55c-1.23 0-2.442.36-3.467 1.044l-2.676 1.788a6.263 6.263 0 0 0-2.783 5.205v.312c0 1.66.654 3.252 1.826 4.424l1.563 1.562a4.42 4.42 0 0 0 3.125 1.3h2.08a2.338 2.338 0 0 1 2.343 2.343c0 .244.04.488.108.713 6.963-.566 12.94-4.649 16.133-10.469zM0 25a25 25 0 1 1 50 0 25 25 0 1 1-50 0ZM18.291 9.834a1.568 1.568 0 0 0-2.207 0l-3.125 3.125a1.568 1.568 0 0 0 0 2.207 1.568 1.568 0 0 0 2.207 0l3.125-3.125a1.568 1.568 0 0 0 0-2.207z"/></svg>