<svg xmlns="http://www.w3.org/2000/svg" viewBox="0 0 50 50"><!--!Font Awesome Free 6.5.2 by @fontawesome - https://fontawesome.com License - https://fontawesome.com/license/free Copyright 2024 Fonticons, Inc.--><path d="M13.81 23.214c-.01.302-.01.592-.01.893v1.786c0 .301 0 .591.01.893H12.2c-1.77 0-3.2 1.596-3.2 3.571 0 1.976 1.43 3.572 3.2 3.572h2.83C17.99 43.292 26 50 35.4 50h2.4c1.77 0 3.2-1.596 3.2-3.571 0-1.976-1.43-3.572-3.2-3.572h-2.4c-5.79 0-10.82-3.616-13.39-8.928H34.6c1.77 0 3.2-1.596 3.2-3.572 0-1.975-1.43-3.571-3.2-3.571H20.22c-.01-.29-.02-.592-.02-.893v-1.786c0-.301.01-.603.02-.893H34.6c1.77 0 3.2-1.596 3.2-3.571 0-1.976-1.43-3.572-3.2-3.572H22.01c2.57-5.312 7.6-8.928 13.39-8.928h2.4c1.77 0 3.2-1.596 3.2-3.572C41 1.596 39.57 0 37.8 0h-2.4C26 0 17.99 6.708 15.03 16.071H12.2c-1.77 0-3.2 1.596-3.2 3.572 0 1.975 1.43 3.571 3.2 3.571z"/></svg>