<svg xmlns="http://www.w3.org/2000/svg" viewBox="0 0 50 50"><!--!Font Awesome Free 6.5.2 by @fontawesome - https://fontawesome.com License - https://fontawesome.com/license/free Copyright 2024 Fonticons, Inc.--><path d="M3.125 6.25A6.256 6.256 0 0 1 9.375 0H25a6.256 6.256 0 0 1 6.25 6.25V25h.781a8.594 8.594 0 0 1 8.594 8.594v3.125a2.338 2.338 0 0 0 2.344 2.343 2.338 2.338 0 0 0 2.343-2.343v-15.04a6.256 6.256 0 0 1-4.687-6.054v-6.25L37.5 6.25a2.216 2.216 0 0 1 0-3.125c.86-.86 2.266-.86 3.125 0l7.549 7.549A6.252 6.252 0 0 1 50 15.098v21.621a7.027 7.027 0 0 1-7.031 7.031 7.027 7.027 0 0 1-7.032-7.031v-3.125a3.905 3.905 0 0 0-3.906-3.907h-.781V43.75a3.122 3.122 0 0 1 3.125 3.125A3.122 3.122 0 0 1 31.25 50H3.125A3.122 3.122 0 0 1 0 46.875a3.122 3.122 0 0 1 3.125-3.125Zm6.25 1.563v9.375c0 .859.703 1.562 1.563 1.562h12.5c.859 0 1.562-.703 1.562-1.563V7.813c0-.859-.703-1.562-1.563-1.562h-12.5c-.859 0-1.562.703-1.562 1.563Z"/></svg>