<svg xmlns="http://www.w3.org/2000/svg" viewBox="0 0 50 50"><!--!Font Awesome Free 6.5.2 by @fontawesome - https://fontawesome.com License - https://fontawesome.com/license/free Copyright 2024 Fonticons, Inc.--><path d="M50 9.375c0 4.902-5.771 12.217-8.262 15.137-.37.43-.918.595-1.416.488H31.25a3.122 3.122 0 0 0-3.125 3.125 3.122 3.122 0 0 0 3.125 3.125h9.375c5.176 0 9.375 4.2 9.375 9.375C50 45.801 45.8 50 40.625 50H13.633a62.578 62.578 0 0 0 2.93-3.594 46.17 46.17 0 0 0 1.855-2.656h22.207a3.122 3.122 0 0 0 3.125-3.125 3.122 3.122 0 0 0-3.125-3.125H31.25c-5.176 0-9.375-4.2-9.375-9.375 0-5.176 4.2-9.375 9.375-9.375h3.887c-2.051-3.076-3.887-6.611-3.887-9.375C31.25 4.199 35.45 0 40.625 0 45.801 0 50 4.2 50 9.375ZM11.436 47.764c-.372.42-.704.79-.987 1.103l-.176.196-.02-.02a1.45 1.45 0 0 1-1.952-.176C5.84 46.191 0 39.307 0 34.375 0 29.199 4.2 25 9.375 25c5.176 0 9.375 4.2 9.375 9.375 0 2.93-2.06 6.543-4.248 9.56a57.359 57.359 0 0 1-3.008 3.76zM12.5 34.375a3.125 3.125 0 1 0-6.25 0 3.125 3.125 0 1 0 6.25 0zM40.625 12.5a3.125 3.125 0 1 0 0-6.25 3.125 3.125 0 1 0 0 6.25z"/></svg>